<?xml version="1.0" encoding="utf-8"?>
<svg viewBox="0 0 100 100" xmlns="http://www.w3.org/2000/svg">
  <defs>
    <linearGradient data-v-fde0c5aa="" gradientTransform="rotate(25)" id="c2e68203-8eb4-4033-be54-5f3030d5143d" x1="0%" y1="0%" x2="100%" y2="0%">
      <stop data-v-fde0c5aa="" offset="0" stop-color="#49247E" stop-opacity="1"/>
      <stop data-v-fde0c5aa="" offset="1" stop-color="#AA49C7" stop-opacity="1"/>
    </linearGradient>
  </defs>
  <rect data-v-fde0c5aa="" fill="transparent" width="100" height="100" class="logo-background-square" style=""/>
  <g data-v-fde0c5aa="" id="a37f2bba-9fed-471b-aab9-a69ae5d99bde" stroke="none" fill="url(#c2e68203-8eb4-4033-be54-5f3030d5143d)" transform="matrix(1, 0, 0, 1, 0, 0.5)">
    <path d="M85 2H15C9.5 2 5 6.5 5 12v75c0 5.5 4.5 10 10 10h70c5.5 0 10-4.5 10-10V12c0-5.5-4.5-10-10-10zm0 80c0 2.8-2.2 5-5 5H20c-2.8 0-5-2.2-5-5V17c0-2.8 2.2-5 5-5h60c2.8 0 5 2.2 5 5v65z"/>
    <path d="M35 32h30v35H35z"/>
    <path d="M77.5 17h-55c-1.4 0-2.5 1.1-2.5 2.5v60c0 1.4 1.1 2.5 2.5 2.5h55c1.4 0 2.5-1.1 2.5-2.5v-60c0-1.4-1.1-2.5-2.5-2.5zM70 72H30V27h40v45z"/>
  </g>
</svg>