<?xml version="1.0" encoding="utf-8"?>
<svg viewBox="0 0 700 700" xmlns="http://www.w3.org/2000/svg">
  <g transform="matrix(1, 0, 0, 1, 0.006073, 69.999496)">
    <path d="m171.83 148.13c0 9.9297-8.0508 17.984-17.984 17.984s-17.984-8.0547-17.984-17.984c0-9.9336 8.0508-17.984 17.984-17.984s17.984 8.0508 17.984 17.984"/>
    <path d="m220.62 148.13c0 9.9297-8.0508 17.984-17.984 17.984-9.9297 0-17.984-8.0547-17.984-17.984 0-9.9336 8.0547-17.984 17.984-17.984 9.9336 0 17.984 8.0508 17.984 17.984"/>
    <path d="m269.41 148.13c0 9.9297-8.0547 17.984-17.984 17.984-9.9336 0-17.984-8.0547-17.984-17.984 0-9.9336 8.0508-17.984 17.984-17.984 9.9297 0 17.984 8.0508 17.984 17.984"/>
    <path d="m474.95 139.38h80.441v17.5h-80.441z"/>
    <path d="m571.54 94.547h-443.08c-19.367 0-35.129 15.754-35.129 35.121v300.67c0 19.367 15.754 35.121 35.121 35.121h443.08c19.367 0 35.121-15.754 35.121-35.121v-76.887l0.003906-63.828v-159.96c0.007813-19.367-15.75-35.121-35.117-35.121zm17.625 146.97v188.82c0 9.7188-7.9023 17.621-17.621 17.621h-443.09c-9.7188 0-17.629-7.9062-17.629-17.625v-235.21h478.33zm0-63.891h-478.34v-47.957c0-9.7188 7.9023-17.621 17.621-17.621h443.08c9.7188 0 17.621 7.9023 17.621 17.621l0.003906 47.957z"/>
    <path d="m312.7 376.61-57.656-57.672 57.656-57.656-12.371-12.371-70.031 70.027 70.031 70.043z"/>
    <path d="m399.68 388.98 70.027-70.043-70.027-70.027-12.375 12.371 57.656 57.656-57.656 57.672z"/>
    <path d="m361.34 252.54 16.723 5.1641-39.422 127.68-16.723-5.1641z"/>
  </g>
</svg>