<?xml version="1.0" encoding="utf-8"?>
<svg viewBox="0 0 700 700" xmlns="http://www.w3.org/2000/svg">
  <g transform="matrix(1, 0, 0, 1, -0.005478, 70.000397)">
    <path d="m394.8 112c-49.004 0-91.156 27.023-114.62 66.324-11.102-5.457-23.191-9.2734-36.402-9.2734-46.258 0-84 37.738-84 84 0 4.5742 1.0469 8.8789 1.75 13.301-33.809 14.633-57.922 47.395-57.922 86.449 0 52.445 42.754 95.199 95.199 95.199h280c64.816 0 117.6-52.785 117.6-117.6 0-47.551-28.723-87.922-69.473-106.4-10.719-63.48-65.695-112-132.12-112zm0 22.398c57.277 0 104.12 42.844 110.95 98.176 0.51562 4.1328 3.2773 7.6367 7.1758 9.1016 35.703 13.719 61.074 48.078 61.074 88.723 0 52.711-42.488 95.203-95.199 95.203h-280c-40.34 0-72.801-32.461-72.801-72.801 0-32.738 21.398-60.227 50.926-69.477 5.7812-1.7734 9.1133-7.8125 7.5234-13.648-1.4531-5.2188-2.2734-10.82-2.2734-16.625 0-34.152 27.445-61.602 61.598-61.602 12.672 0 24.125 3.7656 33.953 10.324 2.6953 1.8594 6.0664 2.4414 9.2305 1.6016 3.1641-0.83984 5.8008-3.0234 7.2188-5.9766 18.184-37.254 56.277-63 100.62-63z"/>
  </g>
</svg>