<?xml version="1.0" encoding="utf-8"?>
<svg viewBox="0 0 700 700" xmlns="http://www.w3.org/2000/svg">
  <g transform="matrix(1, 0, 0, 1, -0.001175, 69.999313)">
    <path d="m222.88 292.32h-56c-3.9219 0-7.2812 3.3594-7.2812 7.2812v140.56c0 3.9219 3.3594 7.2812 7.2812 7.2812h56c3.9219 0 7.2812-3.3594 7.2812-7.2812v-140.56c0-3.9219-3.3594-7.2812-7.2812-7.2812zm-7.2773 140.56h-41.441v-126h41.441z"/>
    <path d="m326.48 231.28h-56c-3.9219 0-7.2812 3.3594-7.2812 7.2812v202.16c0 3.9219 3.3594 7.2812 7.2812 7.2812h56c3.9219 0 7.2812-3.3594 7.2812-7.2812v-202.16c0-3.918-3.3633-7.2773-7.2812-7.2773zm-7.2812 201.6h-41.441l0.003907-187.04h41.441z"/>
    <path d="m430.08 292.32h-56c-3.9219 0-7.2812 3.3594-7.2812 7.2812v140.56c0 3.9219 3.3594 7.2812 7.2812 7.2812h56c3.9219 0 7.2812-3.3594 7.2812-7.2812v-140.56c0-3.9219-3.3594-7.2812-7.2812-7.2812zm-7.8398 140.56h-41.441l0.003906-126h41.441z"/>
    <path d="m533.12 231.28h-56c-3.9219 0-7.2812 3.3594-7.2812 7.2812v202.16c0 3.9219 3.3594 7.2812 7.2812 7.2812h56c3.9219 0 7.2812-3.3594 7.2812-7.2812l-0.003906-202.16c0-3.918-2.7969-7.2773-7.2773-7.2773zm-7.2812 201.6h-41.441v-187.04h41.441z"/>
    <path d="m477.68 176.96c6.7188 7.2812 16.801 11.762 27.441 11.762 21.281 0 38.078-17.359 38.078-38.078 0-20.723-16.801-38.645-38.078-38.645-21.281 0-38.078 17.359-38.078 38.078 0 5.0391 1.1211 9.5195 2.8008 14l-40.324 26.32c-6.7188-7.2812-16.801-11.762-27.441-11.762s-20.719 4.4805-27.441 11.762l-40.32-25.762c1.6797-4.4805 2.8008-8.9609 2.8008-14 0-21.281-17.359-38.078-38.078-38.078-21.281 0-38.078 17.359-38.078 38.078 0 5.0391 1.1211 9.5195 2.8008 14l-41.441 25.762c-6.7188-7.2812-16.801-11.762-27.441-11.762-21.281 0-38.078 17.359-38.078 38.078 0 21.281 17.359 38.078 38.078 38.078s38.078-17.359 38.078-38.078c0-5.0391-1.1211-9.5195-2.8008-14l40.32-25.762c6.7188 7.2812 16.801 11.762 27.441 11.762s20.719-4.4805 27.441-11.762l40.32 25.762c-1.6797 4.4805-2.8008 8.9609-2.8008 14 0 21.281 17.359 38.078 38.078 38.078 21.281 0 38.078-17.359 38.078-38.078 0-5.0391-1.1211-9.5195-2.8008-14zm27.441-49.84c12.879 0 23.52 10.641 23.52 23.52s-10.641 23.52-23.52 23.52-23.52-10.641-23.52-23.52 10.637-23.52 23.52-23.52zm-310.24 113.12c-12.879 0-23.52-10.641-23.52-23.52s10.641-23.52 23.52-23.52 23.52 10.641 23.52 23.52c0 12.883-10.637 23.52-23.52 23.52zm103.6-66.078c-12.879 0-23.52-10.641-23.52-23.52s10.641-23.52 23.52-23.52c12.879 0 23.52 10.641 23.52 23.52s-10.641 23.52-23.52 23.52zm103.04 66.078c-12.879 0-23.52-10.641-23.52-23.52s10.641-23.52 23.52-23.52c12.879 0 23.52 10.641 23.52 23.52 0 12.883-10.078 23.52-23.52 23.52z"/>
  </g>
</svg>