<?xml version="1.0" encoding="utf-8"?>
<svg viewBox="0 0 700 700" xmlns="http://www.w3.org/2000/svg">
  <g>
    <path d="M 473.361 507.851 L 459.619 507.851 C 457.627 502.828 409.951 382.991 379.42 342.961 C 409.744 303.207 445.943 224.341 460.154 192.141 L 474.115 192.141 C 481.037 192.141 486.642 184.173 486.642 174.309 C 486.642 164.466 481.037 156.473 474.115 156.473 L 226.635 156.477 C 219.725 156.477 214.119 164.462 214.119 174.313 C 214.119 184.177 219.725 192.145 226.635 192.145 L 240.092 192.145 C 254.311 224.344 290.498 303.215 320.834 342.965 C 290.299 382.992 241.006 502.825 238.943 507.855 L 225.873 507.855 C 218.963 507.855 213.357 515.84 213.357 525.703 C 213.357 535.555 218.959 543.527 225.873 543.527 L 473.363 543.527 C 480.258 543.527 485.875 535.555 485.875 525.703 C 485.875 515.84 480.258 507.851 473.363 507.851 L 473.361 507.851 Z M 296.391 263.901 L 403.911 263.901 C 403.911 263.901 366.247 335.811 349.321 335.811 C 332.399 335.811 296.391 263.901 296.391 263.901 Z M 349.496 385.861 C 380.566 385.861 431.058 497.841 435.512 507.861 L 265.092 507.861 C 269.448 497.759 318.444 385.861 349.494 385.861 L 349.496 385.861 Z"/>
  </g>
</svg>
