<?xml version="1.0" encoding="utf-8"?>
<svg viewBox="0 0 700 700" xmlns="http://www.w3.org/2000/svg">
  <g transform="matrix(1, 0, 0, 1, -21.96582, 70.016006)">
    <path d="m262.5 192.5c4.832 0 8.75-3.918 8.75-8.75s-3.918-8.75-8.75-8.75c-11.387 0.17969-22.082 5.5039-29.094 14.48-8.1992 10.855-10.883 24.906-7.2617 38.02 1.3555 5.7305 5.4258 23.23 0.91797 31.148-1.0508 1.8359-2.2305 3.9375-12.602 3.9375-4.832 0-8.75 3.918-8.75 8.75 0 2.3203 0.92187 4.5469 2.5625 6.1875 1.6445 1.6406 3.8672 2.5625 6.1875 2.5625 10.238 0 11.637 2.1016 12.688 3.9375 4.375 7.918 0.4375 25.418-0.91797 31.148v0.003906c-3.5938 13.086-0.91016 27.098 7.2617 37.93 7.0078 8.9219 17.664 14.211 29.008 14.395 4.832 0 8.75-3.918 8.75-8.75s-3.918-8.75-8.75-8.75c-6.0508-0.20312-11.695-3.0898-15.398-7.875-4.8555-6.6445-6.3125-15.18-3.9375-23.055 3.2812-13.914 6.125-31.457-0.875-43.75-0.84375-1.4258-1.8086-2.7734-2.8906-4.0273 1.082-1.2539 2.0469-2.5977 2.8906-4.0234 7-12.336 4.1562-29.883 0.875-43.75-2.375-7.8789-0.91797-16.414 3.9375-23.059 3.6875-4.8164 9.3359-7.7383 15.398-7.9609z"/>
    <path d="m350.48 180.86-61.25 175c-0.76562 2.1914-0.63281 4.6016 0.37891 6.6914 1.0078 2.0938 2.8086 3.6992 5.0039 4.4648 0.92969 0.30859 1.9062 0.46875 2.8867 0.48047 3.7227 0.003906 7.0391-2.3477 8.2695-5.8633l61.25-175c1.5938-4.5664-0.81641-9.5625-5.3828-11.156-4.5664-1.5938-9.5625 0.81641-11.156 5.3828z"/>
    <path d="m328.12 455h-153.12v-367.5h197.62l82.383 82.383v158.24c0 4.832 3.918 8.75 8.75 8.75s8.75-3.918 8.75-8.75v-161.88c-0.011719-2.3164-0.9375-4.5352-2.582-6.168l-87.5-87.5c-1.6328-1.6445-3.8516-2.5703-6.168-2.582h-210c-4.832 0-8.75 3.918-8.75 8.75v385c0 2.3203 0.92188 4.5469 2.5625 6.1875s3.8672 2.5625 6.1875 2.5625h161.88c4.832 0 8.75-3.918 8.75-8.75s-3.918-8.75-8.75-8.75z"/>
    <path d="m584.02 418.51-3.9805-4.375c-18.113-20.781-48.434-55.387-116.29-55.387s-98.176 34.605-116.29 55.258l-3.9805 4.375c-1.5547 1.7383-2.3555 4.0273-2.2227 6.3555 0.13281 2.332 1.1836 4.5117 2.9219 6.0664 3.625 3.2383 9.1875 2.9258 12.426-0.69922l4.1133-4.6797c10.895-12.469 25.418-28.918 49.832-39.375-9.4453 13.137-13.699 29.297-11.957 45.383 1.7461 16.086 9.375 30.957 21.414 41.762 12.043 10.805 27.652 16.781 43.828 16.781 16.18 0 31.789-5.9766 43.832-16.781 12.039-10.805 19.664-25.676 21.41-41.762 1.7461-16.086-2.5117-32.246-11.953-45.383 24.414 10.414 38.938 26.863 49.832 39.375l4.1133 4.6797c3.2344 3.625 8.8008 3.9375 12.422 0.69922 3.625-3.2344 3.9375-8.8008 0.70312-12.422zm-72.145 5.8633c0 12.762-5.0703 25.004-14.094 34.031-9.0273 9.0234-21.27 14.094-34.031 14.094s-25.004-5.0703-34.031-14.094c-9.0234-9.0273-14.094-21.27-14.094-34.031s5.0703-25.004 14.094-34.031c9.0273-9.0234 21.27-14.094 34.031-14.094s25.004 5.0703 34.031 14.094c9.0234 9.0273 14.094 21.27 14.094 34.031z"/>
  </g>
</svg>