<?xml version="1.0" encoding="utf-8"?>
<svg viewBox="0 0 700 700" xmlns="http://www.w3.org/2000/svg">
  <g transform="matrix(1, 0, 0, 1, 0.001534, 70.272179)">
    <path d="m588 230.16c1.9727-2.7578 2.5898-6.2578 1.6797-9.5195l-56.559-201.04c-0.84375-3.2383-3.0898-5.9297-6.125-7.3398-3.0352-1.4102-6.5391-1.3867-9.5547 0.058593l-89.043 43.121c-4.6602 2.4414-6.9883 7.8047-5.5977 12.879v1.1211l-96.879 35.277-8.9609-31.359 22.398-6.1602-5.5977-21.84-66.641 18.48 6.1602 21.84 22.398-6.1602 9.5195 33.039-122.64 44.242c-7.0586 2.5469-13.238 7.0664-17.805 13.023-4.5664 5.9531-7.3281 13.098-7.9531 20.574l-39.762 16.242c-5.3594 2.0898-8.2617 7.8984-6.7188 13.438l14 49.84v0.003906c1.2578 4.8711 5.6094 8.3047 10.641 8.3984h2.2383l42.559-7.2812h0.003907c7.4609 10.172 19.305 16.199 31.918 16.242h7.8398l92.961-18.48c5.7344 9.957 15.211 17.215 26.32 20.16v72.238l-99.121 154c-3.4023 5.2578-1.8984 12.277 3.3594 15.68 5.2578 3.4023 12.277 1.8984 15.68-3.3594l80.082-124.88v134.4c0 6.1875 5.0117 11.199 11.199 11.199s11.199-5.0117 11.199-11.199v-134.4l80.641 124.88c3.6992 4.2344 9.9688 5.0664 14.645 1.9492 4.6797-3.1211 6.3203-9.2227 3.8359-14.27l-99.121-154v-72.238c8.4961-2.3789 16.055-7.3047 21.664-14.113s8.9922-15.176 9.6953-23.969l76.719-15.121v1.1211h0.003906c1.2539 4.875 5.6094 8.3086 10.641 8.4023h1.1211l98-10.078-0.003907-0.003906c3.6289-0.12891 6.9688-2.0078 8.9609-5.0391zm-444.64 24.078-8.3984-30.238 26.32-10.641 9.5195 36.402zm71.121 10.078v0.003906c-4.2227 0.85156-8.6133 0.046876-12.262-2.2461s-6.2734-5.8984-7.3398-10.074l-15.121-53.762h0.003907c-1.0859-4.082-0.59766-8.4219 1.375-12.16 1.9727-3.7344 5.2812-6.5898 9.2617-8l48.719-17.922 26.32 93.52zm135.52 3.9219c-5.4961 0-10.766-2.1797-14.652-6.0664-3.8828-3.8867-6.0664-9.1562-6.0664-14.652 0-5.4961 2.1836-10.766 6.0664-14.652 3.8867-3.8828 9.1562-6.0664 14.652-6.0664s10.766 2.1836 14.652 6.0664c3.8828 3.8867 6.0664 9.1562 6.0664 14.652 0 5.4961-2.1836 10.766-6.0664 14.652-3.8867 3.8867-9.1562 6.0664-14.652 6.0664zm38.641-39.199c-5.793-11.113-16.133-19.156-28.332-22.035-12.195-2.8789-25.043-0.3125-35.195 7.0391-10.148 7.3477-16.602 18.75-17.672 31.238l-19.602 3.9219-27.441-96.883 168.56-61.602 34.719 123.2zm100.24-7.8398-42-150.08 68.32-32.48 49.281 175.28z"/>
  </g>
</svg>